<?xml version="1.0" encoding="utf-8"?>
<!-- Generator: Adobe Illustrator 17.0.0, SVG Export Plug-In . SVG Version: 6.00 Build 0)  -->
<!DOCTYPE svg PUBLIC "-//W3C//DTD SVG 1.1//EN" "http://www.w3.org/Graphics/SVG/1.1/DTD/svg11.dtd">
<svg version="1.1" id="Face_App_Icons" xmlns="http://www.w3.org/2000/svg" xmlns:xlink="http://www.w3.org/1999/xlink" x="0px"
	 y="0px" width="599px" height="599px" viewBox="0 0 599 599" enable-background="new 0 0 599 599" xml:space="preserve">
<g>
	<defs>
		<path id="SVGID_51_" d="M288,518c0,33-27,60-60,60H80c-33,0-60-27-60-60V370c0-33,27-60,60-60h148c33,0,60,27,60,60V518z"/>
	</defs>
	<clipPath id="SVGID_2_">
		<use xlink:href="#SVGID_51_"  overflow="visible"/>
	</clipPath>
	<rect x="19" y="309" clip-path="url(#SVGID_2_)" fill="#F2F4F5" width="270" height="270"/>
	<g clip-path="url(#SVGID_2_)">
		<rect x="134.569" y="475.966" fill="#F9DFA9" width="41.132" height="52.491"/>
		<path fill="#EACE95" d="M175.702,475.966v24.021c-16.163-2.741-30.503-10.828-41.132-22.374v-1.647H175.702z"/>
		<path fill="#FFE8B9" d="M201.755,416.43c0,30.357-20.884,68.259-46.635,68.259s-46.635-37.902-46.635-68.259
			c0-30.357,20.884-54.972,46.635-54.972S201.755,386.073,201.755,416.43z"/>
		<path fill="#F9DFA9" d="M201.755,416.43c0,30.357-20.884,68.259-46.635,68.259v-123.23
			C180.871,361.458,201.755,386.073,201.755,416.43z"/>
		<path fill="#EB7063" d="M240.299,579H69.934c0,0,5.513-50.897,10.744-57.316c1.313-1.605,3.053-3.147,5.106-4.617
			c15.486-11.046,48.781-17.966,48.781-17.966c0.177,11.234,10.369,16.851,20.571,16.851c10.192,0,20.394-5.617,20.561-16.851
			c0,0,42.675,8.879,53.856,22.583C234.786,528.103,240.299,579,240.299,579z"/>
		<path fill="#DD695D" d="M240.302,579h-85.162v-63.048c10.192,0,20.394-5.617,20.561-16.851c0,0,42.675,8.879,53.857,22.583
			C234.79,528.103,240.302,579,240.302,579z"/>
		<path fill="#FFE8B9" d="M122.641,425.635c0,9.305-4.899,16.848-10.942,16.848c-6.043,0-10.623-11.542-10.623-20.847
			c0-9.305,4.58-12.848,10.623-12.848C117.742,408.788,122.641,416.331,122.641,425.635z"/>
		<path fill="#F9DFA9" d="M187.599,425.635c0,9.305,4.899,16.848,10.942,16.848c6.043,0,10.623-11.542,10.623-20.847
			c0-9.305-4.58-12.848-10.623-12.848C192.498,408.788,187.599,416.331,187.599,425.635z"/>
		<path fill="#ECBC6F" d="M123.934,345.712c-1.681,17.89,60.845-5.868,77.821,22.742c8.449,14.239,4.096,42.954,4.096,42.954
			s-2.212-2.053-4.468-2.33c-2.256-0.277-2.958,17.513-2.958,17.513h-2.62c0,0-1.042-8.858-3.387-15.111
			c0,0-3.602-6.513-1.171-10.855c2.432-4.342-2.432-20.321-7.468-22.753c-5.037-2.432-8.337,9.553-27.095,13.721
			c-18.758,4.169-36.474,3.647-36.474,3.647s-1.91,5.558-1.042,6.6c0.868,1.042-1.303,9.64-1.303,9.64
			c-2.345,6.253-3.387,15.111-3.387,15.111h-2.619c0,0-0.703-17.791-2.958-17.513c-2.256,0.277-4.468,2.33-4.468,2.33
			s-4.659-25.628,2.751-40.435C113.946,357.458,123.934,345.712,123.934,345.712z"/>
		<path fill="#2F343B" d="M148.13,413.756h-23.535c-1.271,0-2.301,1.03-2.301,2.301v9.999c0,2.886,2.34,5.226,5.226,5.226h15.26
			c4.226,0,7.651-3.425,7.651-7.651v-7.574C150.43,414.786,149.4,413.756,148.13,413.756z M148.052,423.63
			c0,2.907-2.366,5.273-5.273,5.273h-15.26c-1.571,0-2.849-1.278-2.849-2.848v-9.999l23.459,0.077L148.052,423.63z"/>
		<path fill="#2F343B" d="M159.809,416.056v7.574c0,4.225,3.425,7.651,7.651,7.651h15.26c2.886,0,5.226-2.34,5.226-5.226v-9.999
			c0-1.271-1.03-2.301-2.301-2.301H162.11C160.839,413.756,159.809,414.786,159.809,416.056z M162.11,416.133l23.458-0.077v9.999
			c0,1.57-1.278,2.848-2.849,2.848h-15.26c-2.907,0-5.273-2.366-5.273-5.273L162.11,416.133z"/>
		<rect x="183.083" y="556.469" fill="#EB7063" width="33.869" height="6.426"/>
		<path fill="#D3A863" d="M132.367,452.22c0,3.522,2.855,6.377,6.377,6.377h11.247c2.755,0,4.988-2.233,4.988-4.988v-4.782
			c-11.306,0-18.617,8.337-22.612,0V452.22z"/>
		<path fill="#D3A863" d="M177.59,452.22c0,3.522-2.855,6.377-6.377,6.377h-11.247c-2.755,0-4.988-2.233-4.988-4.988v-4.782
			c11.306,0,18.617,8.337,22.612,0V452.22z"/>
	</g>
</g>
<g>
	<defs>
		<path id="SVGID_59_" d="M868,518c0,33-27,60-60,60H660c-33,0-60-27-60-60V370c0-33,27-60,60-60h148c33,0,60,27,60,60V518z"/>
	</defs>
	<clipPath id="SVGID_3_">
		<use xlink:href="#SVGID_59_"  overflow="visible"/>
	</clipPath>
	<rect x="599" y="309" clip-path="url(#SVGID_3_)" fill="#F2F4F5" width="270" height="270"/>
	<g clip-path="url(#SVGID_3_)">
		<rect x="712.493" y="475.923" fill="#F9DFA9" width="41.132" height="52.491"/>
		<path fill="#EACE95" d="M753.626,475.923v24.021c-16.163-2.741-30.503-10.828-41.132-22.374v-1.646H753.626z"/>
		<path fill="#FFE8B9" d="M779.679,416.387c0,30.357-20.884,68.259-46.635,68.259c-25.751,0-46.635-37.902-46.635-68.259
			s20.884-54.972,46.635-54.972C758.795,361.415,779.679,386.03,779.679,416.387z"/>
		<path fill="#F9DFA9" d="M779.679,416.387c0,30.357-20.884,68.259-46.635,68.259v-123.23
			C758.795,361.415,779.679,386.03,779.679,416.387z"/>
		<path fill="#FFE8B9" d="M700.565,425.592c0,9.305-4.899,16.848-10.942,16.848s-10.623-11.542-10.623-20.847
			c0-9.305,4.58-12.848,10.623-12.848S700.565,416.287,700.565,425.592z"/>
		<path fill="#F9DFA9" d="M765.523,425.592c0,9.305,4.899,16.848,10.942,16.848c6.043,0,10.623-11.542,10.623-20.847
			c0-9.305-4.58-12.848-10.623-12.848C770.422,408.744,765.523,416.287,765.523,425.592z"/>
		<path fill="#907264" d="M733.065,348.871c19.647,0,40.205,11.236,46.968,24.75c7.41,14.807,3.73,37.83,3.73,37.83
			s-2.212-2.053-4.468-2.33s-2.958,17.513-2.958,17.513h-2.619c0,0-1.042-8.858-3.387-15.111c0,0-4.126-5.786-1.548-10.043
			c7.512-12.406-23.777-12.488-35.761-12.488c-11.958,0-43.271-2.117-35.942,12.891c1.824,3.734-1.303,9.64-1.303,9.64
			c-2.345,6.253-3.387,15.111-3.387,15.111h-2.62c0,0-0.703-17.791-2.958-17.513c-2.256,0.277-4.468,2.33-4.468,2.33
			s-3.033-23.023,4.377-37.83C693.485,360.107,713.417,348.871,733.065,348.871z"/>
		<path fill="#E5EBEC" d="M818.204,578.957H647.839c0,0,5.513-50.897,10.744-57.316c11.182-13.704,53.888-22.583,53.888-22.583
			c10.348,2.84,10.348,2.84,20.55,2.84c10.192,0,10.192,0,20.582-2.84c0,0,42.675,8.879,53.856,22.583
			C812.691,528.06,818.204,578.957,818.204,578.957z"/>
		<path fill="#DEE4E5" d="M818.204,578.957h-85.162l-0.021-77.059c10.192,0,11.092,0.271,20.582-2.84
			c0,0,42.675,8.879,53.856,22.583C812.691,528.06,818.204,578.957,818.204,578.957z"/>
		<polygon fill="#4A413D" points="730.499,517.704 723.246,578.957 743.508,579 735.991,517.704 		"/>
		<path fill="#4A413D" d="M733.092,501.174c8.392,0,15.41,0,15.41,0l-12.511,16.529h-5.493l-12.969-16.529H733.092z"/>
		<path fill="#F7F9F9" d="M712.471,490.526c5.389,7.083,9.318,10.178,20.55,10.479l-15.187,17.832l-6.997-16.851L712.471,490.526z"
			/>
		<path fill="#F7F9F9" d="M753.603,490.526c-5.389,7.083-9.349,10.178-20.582,10.479l15.187,17.832l6.997-16.851L753.603,490.526z"
			/>
		<path fill="#907264" d="M733.016,451.78c-6.378,0-12.48,1.172-15.486,4.559s-2.094,15.241-2.094,15.241l4.168-1.954
			c0,0,0.391-6.774,1.433-8.728c1.042-1.954,11.979-1.693,11.979-1.693V451.78z"/>
		<path fill="#907264" d="M733.016,451.78c6.378,0,12.48,1.172,15.486,4.559s2.094,15.241,2.094,15.241l-4.169-1.954
			c0,0-0.391-6.774-1.433-8.728c-1.042-1.954-11.979-1.693-11.979-1.693V451.78z"/>
		<path fill="#2B3E50" d="M728.381,417.674c-0.327-0.451-0.85-0.719-1.407-0.719h-22.09c-0.959,0-1.737,0.778-1.737,1.737v10.962
			c0,1.524,1.235,2.759,2.76,2.759h15.21c1.893,0,3.571-1.215,4.163-3.012l3.344-10.166
			C728.798,418.706,728.708,418.125,728.381,417.674z M723.3,428.75c-0.311,0.945-1.189,1.579-2.183,1.579h-15.21
			c-0.372,0-0.676-0.303-0.676-0.675V419.04h21.263L723.3,428.75z"/>
		<path fill="#2B3E50" d="M737.464,419.235l3.344,10.166c0.591,1.798,2.27,3.012,4.162,3.012h15.21c1.524,0,2.76-1.236,2.76-2.759
			v-10.962c0-0.959-0.778-1.737-1.737-1.737h-22.09c-0.557,0-1.08,0.267-1.407,0.719C737.38,418.125,737.29,418.706,737.464,419.235
			z M739.594,419.04h21.263v10.614c0,0.372-0.303,0.675-0.676,0.675h-15.21c-0.994,0-1.871-0.635-2.183-1.579L739.594,419.04z"/>
	</g>
</g>
<g>
	<defs>
		<path id="SVGID_64_" d="M288,808c0,33-27,60-60,60H80c-33,0-60-27-60-60V660c0-33,27-60,60-60h148c33,0,60,27,60,60V808z"/>
	</defs>
	<clipPath id="SVGID_4_">
		<use xlink:href="#SVGID_64_"  overflow="visible"/>
	</clipPath>
	<rect x="19" y="599" clip-path="url(#SVGID_4_)" fill="#F2F4F5" width="270" height="270"/>
	<g clip-path="url(#SVGID_4_)">
		<rect x="134.568" y="765.966" fill="#F9DFA9" width="41.132" height="52.491"/>
		<path fill="#EACE95" d="M175.7,765.966v24.021c-16.163-2.741-30.503-10.828-41.132-22.374v-1.646H175.7z"/>
		<path fill="#FFE8B9" d="M201.753,706.43c0,30.357-20.884,68.259-46.635,68.259c-25.751,0-46.635-37.902-46.635-68.259
			s6.215-54.972,46.635-54.972C195.538,651.458,201.753,676.073,201.753,706.43z"/>
		<path fill="#E5EBEC" d="M175.7,824.059h-41.132v-41.554c0.048,13.2,41.045,12.686,41.132,0V824.059z"/>
		<path fill="#F9DFA9" d="M201.753,706.43c0,30.357-20.884,68.259-46.635,68.259v-123.23
			C195.538,651.458,201.753,676.073,201.753,706.43z"/>
		<path fill="#BBD9BD" d="M240.301,869H69.936c0,0,5.513-50.897,10.744-57.316c11.182-13.704,53.888-22.583,53.888-22.583
			c10.348,2.84,10.348,2.84,20.55,2.84c10.192,0,10.192,0,20.582-2.84c0,0,42.675,8.879,53.857,22.583
			C234.788,818.103,240.301,869,240.301,869z"/>
		<path fill="#E3F4E4" d="M134.568,781.462c5.389,7.083,9.318,10.178,20.55,10.479l-15.187,17.832l-6.997-16.85L134.568,781.462z"/>
		<path fill="#B1CEB3" d="M240.301,869h-85.162l-0.021-77.059c10.192,0,11.092,0.271,20.582-2.84c0,0,42.675,8.879,53.857,22.583
			C234.788,818.103,240.301,869,240.301,869z"/>
		<path fill="#E3F4E4" d="M175.7,781.462c-5.389,7.083-9.349,10.178-20.582,10.479l15.187,17.832l6.997-16.85L175.7,781.462z"/>
		<path fill="#FFE8B9" d="M122.639,715.635c0,9.305-4.899,16.848-10.942,16.848c-6.043,0-10.623-11.542-10.623-20.847
			c0-9.305,4.58-12.848,10.623-12.848C117.74,698.788,122.639,706.331,122.639,715.635z"/>
		<path fill="#F9DFA9" d="M187.597,715.635c0,9.305,4.899,16.848,10.942,16.848s10.623-11.542,10.623-20.847
			c0-9.305-4.58-12.848-10.623-12.848S187.597,706.331,187.597,715.635z"/>
		<path fill="#2F343B" d="M198.38,716.591h-2.578c0,0-0.563,13.808-7.076,20.061c-3.256,3.125,6.763,31.533-33.593,31.534
			c-40.383,0.001-30.366-28.407-33.624-31.534c-6.513-6.253-7.076-20.061-7.076-20.061h-2.578c0,0-0.188,10.855,0,17.629
			c0.188,6.774,0.761,27.803,14.354,43.757c13.593,15.954,44.224,15.954,57.817,0c13.593-15.954,14.166-36.983,14.354-43.757
			C198.568,727.446,198.38,716.591,198.38,716.591z"/>
		<rect x="181.171" y="848.679" fill="#BBD9BD" width="31.611" height="5.965"/>
		<path fill="#2F343B" d="M155.107,633.796c19.647,0,39.892,9.238,46.656,22.753c7.41,14.807,4.075,44.825,4.075,44.825
			s-2.212-2.053-4.468-2.33c-2.256-0.277-2.958,17.513-2.958,17.513h-2.62c0,0-1.042-8.858-3.387-15.111
			c0,0-4.126-5.786-1.548-10.043c7.512-12.406-22.897-4.807-40.092-10.886c-12.03-4.253-17.427-16.196-23.564-13.753
			c-12.984,5.167-13.024,14.852-8.047,25.043c1.824,3.734-1.303,9.64-1.303,9.64c-2.345,6.253-3.387,15.111-3.387,15.111h-2.619
			c0,0-0.703-17.791-2.959-17.513c-2.256,0.277-4.468,2.33-4.468,2.33s-3.377-30.018,4.033-44.825
			C115.215,643.035,135.46,633.796,155.107,633.796z"/>
	</g>
</g>
<g>
	<defs>
		<path id="SVGID_78_" d="M868,809c0,33-27,60-60,60H660c-33,0-60-27-60-60V661c0-33,27-60,60-60h148c33,0,60,27,60,60V809z"/>
	</defs>
	<clipPath id="SVGID_5_">
		<use xlink:href="#SVGID_78_"  overflow="visible"/>
	</clipPath>
	<rect x="599" y="599" clip-path="url(#SVGID_5_)" fill="#F2F4F5" width="270" height="270"/>
	<g clip-path="url(#SVGID_5_)">
		<rect x="712.473" y="765.966" fill="#F9DFA9" width="41.132" height="52.491"/>
		<path fill="#EACE95" d="M753.605,765.966v24.021c-16.163-2.741-30.503-10.828-41.132-22.374v-1.646H753.605z"/>
		<path fill="#FFE8B9" d="M779.658,706.43c0,30.357-20.884,68.259-46.635,68.259c-25.751,0-46.635-37.902-46.635-68.259
			s20.884-54.972,46.635-54.972C758.774,651.458,779.658,676.073,779.658,706.43z"/>
		<path fill="#F9DFA9" d="M779.658,706.43c0,30.357-20.884,68.259-46.635,68.259v-123.23
			C758.774,651.458,779.658,676.073,779.658,706.43z"/>
		<path fill="#1BBB9C" d="M818.202,869H647.837c0,0,5.513-50.897,10.744-57.316c1.313-1.605,3.053-3.147,5.106-4.617
			c15.486-11.046,48.781-17.966,48.781-17.966c0.177,11.234,10.369,16.851,20.571,16.851c10.192,0,20.394-5.617,20.561-16.851
			c0,0,42.675,8.879,53.857,22.583C812.689,818.103,818.202,869,818.202,869z"/>
		<path fill="#1AB294" d="M818.206,869h-85.162v-63.048c10.192,0,20.394-5.617,20.561-16.851c0,0,42.675,8.879,53.857,22.583
			C812.693,818.103,818.206,869,818.206,869z"/>
		<path fill="#FFE8B9" d="M700.544,715.635c0,9.305-4.899,16.848-10.942,16.848c-6.043,0-10.623-11.542-10.623-20.847
			c0-9.305,4.58-12.848,10.623-12.848C695.645,698.788,700.544,706.331,700.544,715.635z"/>
		<path fill="#F9DFA9" d="M765.502,715.635c0,9.305,4.899,16.848,10.942,16.848s10.623-11.542,10.623-20.847
			c0-9.305-4.58-12.848-10.623-12.848S765.502,706.331,765.502,715.635z"/>
		<path fill="#2F343B" d="M763.419,629.126c-2.291,21.451-35.839-0.35-60.703,11.376c-6.24,2.943-14.276,10.002-18.758,18.063
			c-8.046,14.471-1.947,42.842-1.947,42.842s2.212-2.053,4.468-2.33c2.256-0.277,2.958,17.513,2.958,17.513h2.619
			c0,0,1.042-8.858,3.387-15.111c0,0,3.602-6.513,1.171-10.855s-0.846-18.425,6.97-23.462c8.22-5.297,16.174-2.339,34.433,3.647
			c15.892,5.211,22.238-3.265,24.79-0.309c5.614,6.502,4.844,14.739,4.844,14.739s-0.099,2.675-1.237,6.412
			c-0.912,2.996,2.396,7.496,3.581,9.827c3.026,5.953,3.387,15.111,3.387,15.111h2.62c0,0,0.703-17.791,2.958-17.513
			c2.256,0.277,4.468,2.33,4.468,2.33s7.2-26.472-0.21-41.279C776.456,646.614,763.419,629.126,763.419,629.126z"/>
		<rect x="760.987" y="846.469" fill="#1BBB9C" width="33.869" height="6.426"/>
		<g>
			<defs>
				<path id="SVGID_55_" d="M818.202,869H647.837c0,0,5.513-50.897,10.744-57.316c1.313-1.605,3.053-3.147,5.106-4.617
					c15.486-11.046,48.781-17.966,48.781-17.966c0.177,11.234,10.369,16.851,20.571,16.851c10.192,0,20.394-5.617,20.561-16.851
					c0,0,42.675,8.879,53.857,22.583C812.689,818.103,818.202,869,818.202,869z"/>
			</defs>
			<clipPath id="SVGID_6_">
				<use xlink:href="#SVGID_55_"  overflow="visible"/>
			</clipPath>
			<g clip-path="url(#SVGID_6_)">
				<rect x="647.837" y="861.257" fill="#48C8AF" width="85.172" height="7.743"/>
				<rect x="647.837" y="847.709" fill="#48C8AF" width="85.172" height="7.743"/>
				<rect x="647.837" y="834.162" fill="#48C8AF" width="85.172" height="7.743"/>
				<rect x="647.837" y="820.614" fill="#48C8AF" width="85.172" height="7.743"/>
				<rect x="647.837" y="807.067" fill="#48C8AF" width="85.172" height="7.743"/>
				<rect x="647.837" y="793.519" fill="#48C8AF" width="85.172" height="7.743"/>
			</g>
			<g clip-path="url(#SVGID_6_)">
				<rect x="733.039" y="861.257" fill="#44BCA4" width="85.172" height="7.743"/>
				<rect x="733.039" y="847.709" fill="#44BCA4" width="85.172" height="7.743"/>
				<rect x="733.039" y="834.162" fill="#44BCA4" width="85.172" height="7.743"/>
				<rect x="733.039" y="820.614" fill="#44BCA4" width="85.172" height="7.743"/>
				<rect x="733.039" y="807.067" fill="#44BCA4" width="85.172" height="7.743"/>
				<rect x="733.039" y="793.519" fill="#44BCA4" width="85.172" height="7.743"/>
			</g>
		</g>
		<path fill="#2F343B" d="M753.567,752.356h-4.311c0,0,2.57,9.032-4.881,9.032c-7.451,0-5.019-7.121-5.019-7.121l-6.335,0.347
			l-6.335-0.347c0,0,2.432,7.121-5.019,7.121c-7.451,0-4.881-9.032-4.881-9.032h-4.311c0,0-2.983,6.726-1.941,13.61
			c1.042,6.885,5.897,17.218,22.488,17.218c16.591,0,21.446-10.333,22.488-17.218S753.567,752.356,753.567,752.356z"/>
	</g>
</g>
<g>
	<defs>
		<path id="SVGID_87_" d="M578,228c0,33-27,60-60,60H370c-33,0-60-27-60-60V80c0-33,27-60,60-60h148c33,0,60,27,60,60V228z"/>
	</defs>
	<clipPath id="SVGID_7_">
		<use xlink:href="#SVGID_87_"  overflow="visible"/>
	</clipPath>
	<rect x="309" y="19" clip-path="url(#SVGID_7_)" fill="#F2F4F5" width="270" height="270"/>
	<g clip-path="url(#SVGID_7_)">
		<rect x="423.519" y="185.966" fill="#F9DFA9" width="41.132" height="52.491"/>
		<path fill="#EACE95" d="M464.651,185.966v24.021c-16.163-2.741-30.503-10.828-41.132-22.374v-1.646H464.651z"/>
		<path fill="#FFE8B9" d="M490.704,126.43c0,30.357-20.884,68.259-46.635,68.259s-46.635-37.902-46.635-68.259
			s20.884-54.972,46.635-54.972S490.704,96.073,490.704,126.43z"/>
		<path fill="#F9DFA9" d="M490.704,126.43c0,30.357-20.884,68.259-46.635,68.259V71.458
			C469.82,71.458,490.704,96.073,490.704,126.43z"/>
		<path fill="#94A4A5" d="M529.252,289H358.887c0,0,5.513-50.897,10.744-57.316c11.182-13.704,53.888-22.583,53.888-22.583
			c0.177,11.234,10.369,16.851,20.571,16.851c10.192,0,20.394-5.617,20.561-16.851c0,0,42.675,8.879,53.857,22.583
			C523.74,238.103,529.252,289,529.252,289z"/>
		<path fill="#889798" d="M529.252,289h-85.162v-63.048c10.192,0,20.394-5.617,20.561-16.851c0,0,42.675,8.879,53.857,22.583
			C523.74,238.103,529.252,289,529.252,289z"/>
		<path fill="#E5EBEC" d="M464.582,259.039l-20.566,28.311l-20.566-28.311l0.069-56.535c0.048,13.2,41.045,12.686,41.132,0
			L464.582,259.039z"/>
		<polygon fill="#BC413C" points="441.509,228.741 434.257,263.815 443.995,283.181 454.404,263.902 447.002,228.741 		"/>
		<path fill="#ABBDBE" d="M423.519,201.462l-6.595,9.177c-3.545,5.784-6.113,10.563-6.724,22.998h11.685l-11.034,8.076
			l33.164,45.636l-0.021-4.169C431.637,261.346,427.873,227.724,423.519,201.462z"/>
		<path fill="#ABBDBE" d="M464.651,201.462l6.564,9.177c5.805,6.995,6.905,13.337,6.723,22.998h-11.685l11.034,8.076l-33.271,45.636
			l0.021-4.169C456.395,261.346,460.298,227.724,464.651,201.462z"/>
		<path fill="#AC3C37" d="M444.103,212.212c8.392,0,15.41,0,15.41,0l-12.511,16.529h-5.493l-12.969-16.529H444.103z"/>
		<path fill="#F9F9F9" d="M423.519,201.462c5.389,7.083,9.318,10.178,20.551,10.479c-5.432,5.118-10.139,9.875-15.187,17.832
			C423.2,218.15,422.297,211.067,423.519,201.462z"/>
		<path fill="#F9F9F9" d="M464.62,201.462c-5.389,7.083-9.318,10.178-20.551,10.479c5.432,5.118,10.139,9.875,15.187,17.832
			C464.939,218.15,465.843,211.067,464.62,201.462z"/>
		<path fill="#FFE8B9" d="M411.59,135.635c0,9.305-4.899,16.847-10.942,16.847c-6.043,0-10.623-11.542-10.623-20.847
			c0-9.305,4.58-12.848,10.623-12.848C406.691,118.788,411.59,126.331,411.59,135.635z"/>
		<path fill="#F9DFA9" d="M476.549,135.635c0,9.305,4.899,16.847,10.942,16.847c6.043,0,10.623-11.542,10.623-20.847
			c0-9.305-4.58-12.848-10.623-12.848C481.448,118.788,476.549,126.331,476.549,135.635z"/>
		<path fill="#D28554" d="M444.07,53.829c19.647,0,39.892,9.238,46.655,22.753c7.41,14.807,4.075,44.825,4.075,44.825
			s-2.212-2.053-4.468-2.33c-2.256-0.278-2.958,17.513-2.958,17.513h-2.619c0,0-1.042-8.858-3.387-15.111
			c0,0-4.126-5.786-1.548-10.043c7.513-12.406,4.111-28.515-35.729-28.515c-39.752,0-43.304,13.91-35.974,28.919
			c1.824,3.734-1.303,9.64-1.303,9.64c-2.345,6.253-3.387,15.111-3.387,15.111h-2.619c0,0-0.703-17.791-2.958-17.513
			c-2.256,0.277-4.468,2.33-4.468,2.33s-3.377-30.019,4.033-44.825C404.177,63.068,424.422,53.829,444.07,53.829z"/>
		<polygon fill="#C67E4F" points="443.45,156.825 425.603,164.641 425.603,168.983 443.45,167.072 		"/>
		<polygon fill="#C67E4F" points="444.69,156.825 462.536,164.641 462.536,168.983 444.69,167.072 		"/>
		<path fill="#634E42" d="M437.166,124.129h-21.971c-1.487,0-2.692,1.428-2.692,3.19v6.174c0,3.126,2.138,5.66,4.776,5.66h13.968
			c4.036,0,7.309-3.877,7.309-8.66v-4.717C438.555,124.866,437.933,124.129,437.166,124.129z M436.471,130.492
			c0,3.414-2.344,6.191-5.225,6.191h-13.968c-1.484,0-2.692-1.431-2.692-3.19v-6.174c0-0.397,0.273-0.721,0.607-0.721h21.277
			V130.492z"/>
		<path fill="#634E42" d="M449.584,125.775v4.717c0,4.783,3.272,8.66,7.309,8.66h13.968c2.638,0,4.776-2.534,4.776-5.66v-6.174
			c0-1.762-1.205-3.19-2.692-3.19h-21.971C450.206,124.129,449.584,124.866,449.584,125.775z M451.668,126.598h21.277
			c0.335,0,0.608,0.323,0.608,0.721v6.174c0,1.759-1.208,3.19-2.692,3.19h-13.968c-2.881,0-5.225-2.777-5.225-6.191V126.598z"/>
	</g>
</g>
<g>
	<defs>
		<path id="SVGID_90_" d="M868,228c0,33-27,60-60,60H660c-33,0-60-27-60-60V80c0-33,27-60,60-60h148c33,0,60,27,60,60V228z"/>
	</defs>
	<clipPath id="SVGID_8_">
		<use xlink:href="#SVGID_90_"  overflow="visible"/>
	</clipPath>
	<rect x="599" y="19" clip-path="url(#SVGID_8_)" fill="#F2F4F5" width="270" height="270"/>
	<g clip-path="url(#SVGID_8_)">
		<rect x="712.471" y="185.966" fill="#F9DFA9" width="41.132" height="52.491"/>
		<path fill="#EACE95" d="M753.603,185.966v24.021c-16.163-2.741-30.503-10.828-41.132-22.374v-1.646H753.603z"/>
		<path fill="#FFE8B9" d="M779.656,126.43c0,30.357-20.884,68.259-46.635,68.259c-25.751,0-46.635-37.902-46.635-68.259
			s20.884-54.972,46.635-54.972C758.772,71.458,779.656,96.073,779.656,126.43z"/>
		<path fill="#E5EBEC" d="M753.603,244.059h-41.132v-41.554c0.048,13.2,41.045,12.686,41.132,0V244.059z"/>
		<path fill="#F9DFA9" d="M779.656,126.43c0,30.357-20.884,68.259-46.635,68.259V71.458
			C758.772,71.458,779.656,96.073,779.656,126.43z"/>
		<path fill="#71B5E5" d="M818.204,289H647.839c0,0,5.513-50.897,10.744-57.316c11.182-13.704,53.888-22.583,53.888-22.583
			c10.348,2.84,10.348,2.84,20.55,2.84c10.192,0,10.192,0,20.582-2.84c0,0,42.675,8.879,53.856,22.583
			C812.691,238.103,818.204,289,818.204,289z"/>
		<path fill="#80C3F1" d="M712.471,201.462c5.389,7.083,9.318,10.178,20.55,10.479l-15.187,17.832l-6.997-16.85L712.471,201.462z"/>
		<path fill="#5DACE1" d="M818.204,289h-85.162l-0.021-77.059c10.192,0,11.092,0.271,20.582-2.84c0,0,42.675,8.879,53.856,22.583
			C812.691,238.103,818.204,289,818.204,289z"/>
		<path fill="#80C3F1" d="M753.603,201.462c-5.389,7.083-9.349,10.178-20.582,10.479l15.187,17.832l6.997-16.85L753.603,201.462z"/>
		<path fill="#FFE8B9" d="M700.542,135.635c0,9.305-4.899,16.847-10.942,16.847c-6.043,0-10.623-11.542-10.623-20.847
			c0-9.305,4.58-12.848,10.623-12.848C695.643,118.788,700.542,126.331,700.542,135.635z"/>
		<path fill="#F9DFA9" d="M765.501,135.635c0,9.305,4.899,16.847,10.942,16.847c6.043,0,10.623-11.542,10.623-20.847
			c0-9.305-4.58-12.848-10.623-12.848C770.4,118.788,765.501,126.331,765.501,135.635z"/>
		<path fill="#2F343B" d="M733.042,61.472c19.647,0,39.892,9.238,46.655,22.753c7.41,14.807,4.054,37.183,4.054,37.183
			s-2.212-2.053-4.468-2.33c-2.256-0.278-2.958,17.513-2.958,17.513h-2.62c0,0-1.042-8.858-3.387-15.111
			c0,0-3.602-6.513-1.171-10.855c2.432-4.342-2.432-20.321-7.469-22.753c-5.037-2.432-8.337,9.553-27.095,13.721
			c-18.758,4.168-36.474,3.647-36.474,3.647s-1.91,5.558-1.042,6.6c0.868,1.042-1.303,9.64-1.303,9.64
			c-2.345,6.253-3.387,15.111-3.387,15.111h-2.62c0,0-0.703-17.791-2.958-17.513c-2.256,0.277-4.468,2.33-4.468,2.33
			s-3.356-22.376,4.054-37.183C693.15,70.71,713.395,61.472,733.042,61.472z"/>
		<path fill="#2F343B" d="M776.283,136.591h-2.578c0,0-0.563,13.808-7.076,20.061c-6.513,6.253-11.425,13.157-11.425,13.157
			s-1.211-3.257-1.602-4.559c-0.391-1.303-20.582-5.08-20.582-5.08s-20.191,3.778-20.582,5.08c-0.391,1.303-1.602,4.559-1.602,4.559
			s-4.911-6.904-11.425-13.157c-6.513-6.253-7.076-20.061-7.076-20.061h-2.578c0,0-0.188,10.855,0,17.629
			c0.188,6.774,4.704,32.306,17.035,38.385c12.332,6.079,26.227,6.774,26.227,6.774s13.895-0.695,26.227-6.774
			c12.332-6.079,16.847-31.611,17.035-38.385C776.471,147.446,776.283,136.591,776.283,136.591z"/>
		<path fill="#F9DFA9" d="M743.677,171.263c0,2.53-2.051,4.581-4.581,4.581h-13.022c-2.53,0-4.581-2.051-4.581-4.581v-0.109h22.184
			V171.263z"/>
		<rect x="759.074" y="268.679" fill="#71B5E5" width="31.611" height="5.965"/>
	</g>
</g>
<g>
	<defs>
		<path id="SVGID_46_" d="M287,228c0,33-27,60-60,60H79c-33,0-60-27-60-60V80c0-33,27-60,60-60h148c33,0,60,27,60,60V228z"/>
	</defs>
	<clipPath id="SVGID_9_">
		<use xlink:href="#SVGID_46_"  overflow="visible"/>
	</clipPath>
	<rect x="18" y="19" clip-path="url(#SVGID_9_)" fill="#F2F4F5" width="270" height="270"/>
	<g clip-path="url(#SVGID_9_)">
		<path fill="#14161A" d="M105.238,243.284c13.097-2.351,21.079-8.344,29.75-11.226c11.858-3.941,23.582-4.46,35.347-0.25
			c13.361,4.781,25.375,14,45.125,11.349c0,0-16.375-8.599-16.5-27.224s4.436-92.086,4.343-92.135
			c-0.093-0.049-67.665-15.255-96.343-0.799c0,0,3.625,16.75,0.875,38S105.238,243.284,105.238,243.284z"/>
		<path fill="#F9DFA9" d="M171.453,180.966c-0.617,7.864,0.224,27.174,2.333,57.491h-41.132c1.438-22.452,2.902-47.266,2.333-57.491
			H171.453z"/>
		<path fill="#EACE95" d="M171.453,180.966c-0.219,10.046-0.206,17.447,0.556,29.021c-14.329-2.741-27.598-12.19-37.021-23.737
			v-5.284H171.453z"/>
		<path fill="#FFE8B9" d="M199.835,126.43c0,22.36-29.42,68.26-46.63,68.26s-46.63-43.24-46.63-68.26
			c0-30.36,20.88-54.97,46.63-54.97S199.835,96.07,199.835,126.43z"/>
		<path fill="#304457" d="M172.005,202.5V285h-37.57v-82.5c0.02,6.67,9.59,9.84,19.06,9.7
			C162.775,212.08,171.965,208.78,172.005,202.5z"/>
		<path fill="#97C1DE" d="M226.585,289H79.415c0,0,3.56-50.9,8.17-57.32c7.99-11.07,33.82-19.64,46.78-22.58
			c0.17,11.22,9.486,38.056,18.826,38.066c0.01,0,0.01,0,0.02,0c9.33,0,18.694-26.836,18.854-38.066c0,0,36.74,10.53,46.6,24.23
			C223.275,239.75,226.585,289,226.585,289z"/>
		<path fill="#8DB3CF" d="M226.585,289h-73.38l-0.014-41.834c0.01,0,0.01,0,0.02,0c9.33,0,18.694-26.836,18.854-38.066
			c0,0,36.74,10.53,46.6,24.23C223.275,239.75,226.585,289,226.585,289z"/>
		<path fill="#F9F9F9" d="M134.432,202.504c4.426,6.597,7.536,9.407,18.769,9.707c-4.305,3.243-6.058,6.845-6.797,15.913
			c-1.064-0.34-14.416-8-14.367-15.125C132.08,207.013,134.432,202.504,134.432,202.504z"/>
		<path fill="#F9F9F9" d="M171.971,202.504c-4.426,6.597-7.537,9.407-18.769,9.707c4.305,3.243,6.058,6.845,6.797,15.913
			c1.064-0.34,14.416-8,14.367-15.125C174.323,207.013,171.971,202.504,171.971,202.504z"/>
		<path fill="#FFE8B9" d="M122.47,135.288c0.272,8.42-4.405,15.404-10.445,15.599c-6.04,0.195-10.955-10.103-11.226-18.523
			c-0.272-8.42,4.202-11.775,10.243-11.97C117.082,120.199,122.198,126.867,122.47,135.288z"/>
		<path fill="#FFE8B9" d="M183.94,135.288c-0.272,8.42,4.405,15.404,10.445,15.599c6.04,0.195,10.955-10.103,11.226-18.523
			c0.272-8.42-4.202-11.775-10.243-11.97C189.328,120.199,184.211,126.867,183.94,135.288z"/>
		<path fill="#F9DFA9" d="M199.835,126.43c0,22.36-29.42,68.26-46.63,68.26V71.46C178.955,71.46,199.835,96.07,199.835,126.43z"/>
		<path fill="#23262B" d="M172.335,98.25c0,0-7.369,16.407-29.716,25.25c-7.936,3.14-13.654,4.25-20.138,5.5
			c-9.701,14.634,0,105.333,5.007,123.833c-9.097,0-27.833-11.333-32.667-20c2.129-5.582,4.242-44.162,0-66.167
			c-3.097-16.065-4.442-40.435-1.688-53c6.903-31.5,33.33-44.672,57.702-46.167c25.25-1.549,50.007,13.2,58.5,33.25
			c10.167,24,4.539,49.34,2.07,65.5c-2.75,18-2.75,61-0.186,68.749c-5.597,10.1-20.231,15.668-31.398,17.835
			c-2.109-18,4.782-67.742,8.333-100.833C191.106,124.503,172.335,98.25,172.335,98.25z"/>
	</g>
</g>
<g>
	<defs>
		<path id="SVGID_53_" d="M577,808c0,33-27,60-60,60H369c-33,0-60-27-60-60V660c0-33,27-60,60-60h148c33,0,60,27,60,60V808z"/>
	</defs>
	<clipPath id="SVGID_10_">
		<use xlink:href="#SVGID_53_"  overflow="visible"/>
	</clipPath>
	<rect x="308" y="599" clip-path="url(#SVGID_10_)" fill="#F2F4F5" width="270" height="270"/>
	<g clip-path="url(#SVGID_10_)">
		<path fill="#574A48" d="M407.687,824.281c10.008-2.351,16.107-8.344,22.732-11.226c9.061-3.941,18.019-4.46,27.009-0.25
			c10.209,4.781,19.389,14,34.481,11.349c0,0-17.661-19.567-16.53-38.158c1.637-26.916,7.312-81.153,7.241-81.201
			c-0.071-0.049-51.704-15.255-73.617-0.799c0,0-13.047,10.415-7.369,31C410.737,767.997,407.687,824.281,407.687,824.281z"/>
		<path fill="#F9DFA9" d="M461.453,760.966c-0.617,7.864,0.224,27.174,2.333,57.491h-41.132c1.438-22.452,2.902-47.266,2.333-57.491
			H461.453z"/>
		<path fill="#EACE95" d="M461.453,760.966c-0.219,10.046-0.206,17.447,0.556,29.021c-14.329-2.741-27.598-12.19-37.021-23.737
			v-5.284H461.453z"/>
		<path fill="#FFE8B9" d="M489.835,706.43c0,22.36-29.42,68.26-46.63,68.26c-17.21,0-46.63-43.24-46.63-68.26
			c0-30.36,20.88-54.97,46.63-54.97S489.835,676.07,489.835,706.43z"/>
		<path fill="#F2AE6D" d="M516.585,869h-147.17c0,0,3.56-50.9,8.17-57.32c7.99-11.07,33.82-19.64,46.78-22.58
			c0.17,11.22,9.5,16.84,18.84,16.85c0.01,0,0.01,0,0.02,0c9.33,0,18.68-5.62,18.84-16.85c0,0,36.74,10.53,46.6,24.23
			C513.275,819.75,516.585,869,516.585,869z"/>
		<path fill="#E3A366" d="M516.585,869h-73.38v-63.05c0.01,0,0.01,0,0.02,0c9.33,0,18.68-5.62,18.84-16.85
			c0,0,36.74,10.53,46.6,24.23C513.275,819.75,516.585,869,516.585,869z"/>
		<path fill="#FFE8B9" d="M412.47,715.288c0.272,8.42-4.405,15.404-10.445,15.599c-6.04,0.195-10.955-10.103-11.226-18.523
			c-0.272-8.42,4.203-11.775,10.243-11.97C407.082,700.199,412.198,706.867,412.47,715.288z"/>
		<path fill="#FFE8B9" d="M473.94,715.288c-0.272,8.42,4.405,15.404,10.445,15.599c6.04,0.195,10.955-10.103,11.226-18.523
			c0.272-8.42-4.203-11.775-10.243-11.97C479.328,700.199,474.211,706.867,473.94,715.288z"/>
		<path fill="#F9DFA9" d="M489.835,706.43c0,22.36-29.42,68.26-46.63,68.26V651.46C468.955,651.46,489.835,676.07,489.835,706.43z"
			/>
		<path fill="#907264" d="M417.996,690.664c6.991,9.726,32.77,24.624,55.944,24.624c4.711,7.107,3.846,25.82-3.321,52.21
			c-29.159,38.453,12.769,72.345-2.701,89.845c9.097,0,25.379-9.348,23.991-37.888c-0.842-17.309-17.131-29.577-15.53-50.957
			c0.391-5.221,4.047-9.769,7.239-12.796c21.834-20.704,21.218-48.472,18.464-61.038c-6.903-31.5-33.498-48.672-57.87-50.167
			c-11.763-0.722-33,2.875-34.125,16.625c-10.805-0.335-22.588,9.79-27.125,20.5c-10.167,24-6.583,51.708,11.867,70.375
			c5.432,5.496,9.236,10.864,9.372,16.25c0.515,20.334-9.317,23.585-11.447,50.21c-1.803,22.54,12.78,35.373,23.947,37.54
			c-14.5-13.25,23.841-45.448-5.966-88c-1.784-11.5-5.222-23.753-5.966-35.75C403.058,704.645,417.996,690.664,417.996,690.664z"/>
		<path fill="#EB7063" d="M471.626,761.652c-3.449,0.313-4.583,4.388-3.016,5.975c2.066,2.092,4.382,3.324,7.061,3.564
			c2.828,0.254,5.466-3.417,3.691-5.634C477.472,763.195,475.074,761.339,471.626,761.652z"/>
		<path fill="#EB7063" d="M402.885,763.586c-2.444,2.453-0.701,6.306,1.52,6.518c2.927,0.279,5.493-0.262,7.703-1.797
			c2.332-1.62,2.001-6.127-0.783-6.69C408.359,761.018,405.329,761.133,402.885,763.586z"/>
	</g>
</g>
<g>
	<defs>
		<path id="SVGID_1_" d="M578,518c0,33-27,60-60,60H370c-33,0-60-27-60-60V370c0-33,27-60,60-60h148c33,0,60,27,60,60V518z"/>
	</defs>
	<clipPath id="SVGID_11_">
		<use xlink:href="#SVGID_1_"  overflow="visible"/>
	</clipPath>
	<rect x="309" y="309" clip-path="url(#SVGID_11_)" fill="#F2F4F5" width="270" height="270"/>
	<g clip-path="url(#SVGID_11_)">
		<path fill="#23262B" d="M408.687,534.281c39.72,0,66.842,0.127,74.97,0c0,0-3.893-20.613-2.762-39.204
			c1.637-26.915,12.015-54.187,2.725-80.281c-0.071-0.049-51.704-15.255-73.617-0.799c0,0-13.047,10.415-7.369,31
			C411.737,477.997,408.687,534.281,408.687,534.281z"/>
		<path fill="#F9DFA9" d="M462.453,470.966c-0.617,7.864,0.224,27.174,2.333,57.491h-41.132c1.438-22.452,2.902-47.266,2.333-57.491
			H462.453z"/>
		<path fill="#EACE95" d="M462.453,470.966c-0.219,10.046-0.206,17.447,0.556,29.021c-14.329-2.741-27.598-12.19-37.021-23.737
			v-5.284H462.453z"/>
		<path fill="#FFE8B9" d="M490.835,416.43c0,22.36-29.42,68.26-46.63,68.26c-17.21,0-46.63-43.24-46.63-68.26
			c0-30.36,20.88-54.97,46.63-54.97S490.835,386.07,490.835,416.43z"/>
		<path fill="#94A4A5" d="M517.585,579h-147.17c0,0,3.56-50.9,8.17-57.32c7.99-11.07,33.82-19.64,46.78-22.58
			c0.17,11.22,9.5,16.84,18.84,16.85c0.01,0,0.01,0,0.02,0c9.33,0,18.68-5.62,18.84-16.85c0,0,36.74,10.53,46.6,24.23
			C514.275,529.75,517.585,579,517.585,579z"/>
		<path fill="#889798" d="M517.585,579h-73.38v-63.05c0.01,0,0.01,0,0.02,0c9.33,0,18.68-5.62,18.84-16.85
			c0,0,36.74,10.53,46.6,24.23C514.275,529.75,517.585,579,517.585,579z"/>
		<path fill="#FFE8B9" d="M413.47,425.288c0.272,8.42-4.405,15.405-10.445,15.599c-6.04,0.195-10.955-10.103-11.226-18.523
			c-0.272-8.42,4.202-11.775,10.243-11.97C408.082,410.199,413.198,416.867,413.47,425.288z"/>
		<path fill="#FFE8B9" d="M474.94,425.288c-0.272,8.42,4.405,15.405,10.445,15.599c6.04,0.195,10.955-10.103,11.226-18.523
			c0.272-8.42-4.203-11.775-10.243-11.97C480.328,410.199,475.211,416.867,474.94,425.288z"/>
		<path fill="#F9DFA9" d="M490.835,416.43c0,22.36-29.42,68.26-46.63,68.26V361.46C469.955,361.46,490.835,386.07,490.835,416.43z"
			/>
		<path fill="#292D33" d="M496.622,392.077c-8.39-19.82-27.181-34.79-52.12-33.62c-24.94-1.17-45.83,12.3-54.22,32.12
			c-10.17,24-3.75,47.5,6.37,77.88c1.04,5.99,4.88,16.31,2.21,49.62c-0.39,4.91,2,10.38,4.25,14.5
			c-13.96,24.12,9.17,19.12,6.67,36.12c18.87-18.37-0.75-27.24-0.08-36.62c1.91-1.83,2.37-11.4,3.08-17.75
			c2.31-20.75,0.22-28.75-1.05-36.33c-1.91-11.48-1.776-21.965-6.423-34.92c7.648-12.482,12.598-37,12.598-37
			c-1.233,4.698,65.179,36.765,66.183,36.765c-4.2,13.33-4.908,23.675-6.818,35.155c-1.27,7.58-3.36,15.58-1.05,36.33
			c0.71,6.35,1.17,15.92,3.08,17.75c0.67,9.38-18.95,18.25-0.08,36.62c-2.5-17,20.63-12,6.67-36.12c2.25-4.12,4.64-9.59,4.25-14.5
			c-2.67-33.31,1.17-43.63,2.21-49.62C497.194,440.567,506.792,416.077,496.622,392.077z"/>
		<path fill="#AC3C37" d="M478.256,529.937c-1.849,0.64-1.01,4.911,0.675,5.022c2.769,0.105,5.541,0.131,8.311,0.08
			c1.503-1.483,1.578-3.884,0.172-5.459C484.461,528.326,480.105,529.297,478.256,529.937z"/>
		<path fill="#AC3C37" d="M400.749,529.937c-1.849,0.64-1.01,4.911,0.675,5.022c2.769,0.105,5.541,0.131,8.311,0.08
			c1.503-1.483,1.578-3.884,0.172-5.459C406.954,528.326,402.598,529.297,400.749,529.937z"/>
	</g>
</g>
</svg>
